<svg width="590" height="35" viewBox="0 0 590 35" fill="none" xmlns="http://www.w3.org/2000/svg">
<path d="M28.4398 33.2398H21.8398C22.7398 31.0798 22.6798 29.7598 22.6798 28.1398V14.8198H5.75984V28.1398C5.75984 29.7598 5.75984 31.0798 6.59984 33.2398H-0.000156119C0.899844 31.0798 0.839844 29.7598 0.839844 28.1398V5.9998C0.839844 4.4998 0.899844 3.1198 -0.000156119 0.959803H6.59984C5.75984 3.1198 5.75984 4.4998 5.75984 5.9998V13.0198H22.6798V5.9998C22.6798 4.4998 22.7398 3.1198 21.8398 0.959803H28.4398C27.5398 3.1198 27.5998 4.4998 27.5998 5.9998V28.1398C27.5998 29.7598 27.5398 31.0798 28.4398 33.2398ZM60.9913 0.959803C60.8113 1.4398 60.5113 2.6398 60.5113 4.1998V20.8198C60.5113 28.0198 54.6313 33.9598 47.3712 33.9598C40.1113 33.9598 33.5112 27.9598 33.5112 20.6398V5.9998C33.5112 4.4398 33.5713 3.1198 32.6713 0.959803H39.2713C38.4313 3.0598 38.4313 4.0198 38.4313 5.9998C38.4313 5.9998 38.4313 14.9998 38.4313 20.6398C38.4313 25.9198 42.5713 31.3798 48.0313 31.3798C53.9113 31.3798 58.6513 26.6398 58.6513 20.8198C58.6513 14.8798 58.6513 4.1998 58.6513 4.1998C58.6513 2.6398 58.3513 1.4398 58.2313 0.959803H60.9913ZM95.2719 11.6998C98.9919 21.7198 91.0119 33.2398 77.8719 33.2398H65.3319C66.2319 31.1998 66.1719 30.5398 66.1719 28.1398V5.9998C66.1719 4.4998 66.2919 3.1198 65.4519 0.959803H78.6519C85.0719 0.959803 92.3319 3.7798 95.2719 11.6998ZM90.7719 17.2198C90.5919 11.5798 86.6319 2.8198 76.6719 2.8198H71.0919V31.4398H77.5719C89.0919 31.4398 90.9519 22.7398 90.7719 17.2198ZM126.53 33.2998H119.09C113.33 24.7798 112.55 22.9798 107.63 13.6198C107.15 13.9798 106.73 14.3398 106.19 14.8198V28.1398C106.19 29.7598 106.19 31.0798 107.03 33.2398H100.43C101.33 31.0798 101.27 29.7598 101.27 28.1398V6.0598C101.27 4.4998 101.33 3.1198 100.43 0.959803H107.03C106.19 3.1198 106.19 4.4998 106.19 6.0598V12.4198L113.99 5.5798C115.79 4.0198 116.75 3.4198 118.43 1.0198H121.97L110.63 11.0998C115.19 19.3798 120.77 28.3798 126.53 33.2998ZM146.83 29.9998L145.75 33.2398H127.09C127.99 31.1998 127.93 30.5398 127.93 28.1398V5.9998C127.93 4.4998 127.99 3.1198 127.09 0.959803H133.69C132.85 3.1198 132.85 4.4998 132.85 5.9998V31.4398H141.79C142.99 31.4398 143.71 31.1998 146.83 29.9998ZM156.558 33.2398H149.958C150.798 31.0798 150.798 29.7598 150.798 28.1398V5.9998C150.798 4.4998 150.798 3.1198 149.958 0.959803H156.558C155.658 3.1198 155.718 4.4998 155.718 5.9998V28.1398C155.718 29.7598 155.658 31.0798 156.558 33.2398ZM189.312 0.899803C189.132 1.4398 188.832 2.5798 188.832 4.1398V34.1998H187.752L164.352 8.3398V29.9998C164.352 31.5598 164.712 32.7598 164.832 33.2398H162.072C162.192 32.7598 162.552 31.5598 162.552 29.9998V-0.000195742H163.572L186.972 25.8598V4.1398C186.972 2.5798 186.672 1.4398 186.552 0.899803H189.312ZM202.085 33.2398H195.485C196.325 31.0798 196.325 29.7598 196.325 28.1398V5.9998C196.325 4.4998 196.325 3.1198 195.485 0.959803H202.085C201.185 3.1198 201.245 4.4998 201.245 5.9998V28.1398C201.245 29.7598 201.185 31.0798 202.085 33.2398ZM233.639 33.2998H226.199C220.439 24.7798 219.659 22.9798 214.739 13.6198C214.259 13.9798 213.839 14.3398 213.299 14.8198V28.1398C213.299 29.7598 213.299 31.0798 214.139 33.2398H207.539C208.439 31.0798 208.379 29.7598 208.379 28.1398V6.0598C208.379 4.4998 208.439 3.1198 207.539 0.959803H214.139C213.299 3.1198 213.299 4.4998 213.299 6.0598V12.4198L221.099 5.5798C222.899 4.0198 223.859 3.4198 225.539 1.0198H229.079L217.739 11.0998C222.299 19.3798 227.879 28.3798 233.639 33.2998ZM260.299 33.2998H252.859C247.099 24.7798 246.319 22.9798 241.399 13.6198C240.919 13.9798 240.499 14.3398 239.959 14.8198V28.1398C239.959 29.7598 239.959 31.0798 240.799 33.2398H234.199C235.099 31.0798 235.039 29.7598 235.039 28.1398V6.0598C235.039 4.4998 235.099 3.1198 234.199 0.959803H240.799C239.959 3.1198 239.959 4.4998 239.959 6.0598V12.4198L247.759 5.5798C249.559 4.0198 250.519 3.4198 252.199 1.0198H255.739L244.399 11.0998C248.959 19.3798 254.539 28.3798 260.299 33.2998ZM280.599 29.9998L279.519 33.2398H260.859C261.759 31.1998 261.699 30.5398 261.699 28.1398V5.9998C261.699 4.4998 261.759 3.1198 260.859 0.959803H278.799L280.119 4.0198C276.759 2.7598 276.099 2.8198 274.839 2.8198H266.619V13.4398H278.079L277.419 15.2398H266.619V31.4398H275.559C276.759 31.4398 277.479 31.1998 280.599 29.9998ZM311.655 0.899803C311.475 1.4398 311.175 2.5798 311.175 4.1398V34.1998H310.095L286.695 8.3398V29.9998C286.695 31.5598 287.055 32.7598 287.175 33.2398H284.415C284.535 32.7598 284.895 31.5598 284.895 29.9998V-0.000195742H285.915L309.315 25.8598V4.1398C309.315 2.5798 309.015 1.4398 308.895 0.899803H311.655ZM366.228 11.5798C369.888 21.5998 361.728 33.4798 349.488 33.5398C345.708 33.5398 341.508 32.5198 338.748 30.5398C338.088 30.5398 335.508 32.5798 334.848 33.1798L333.468 31.7398L336.528 28.6798C334.788 26.9998 333.528 25.1398 332.688 22.7998C328.908 12.7198 337.068 0.899803 349.428 0.779801C353.208 0.779801 357.348 1.7998 360.948 4.2598L364.128 1.0198L365.508 2.4598L362.388 5.5798C364.128 7.3198 365.328 9.1798 366.228 11.5798ZM357.768 7.3798C355.068 4.3798 351.828 2.9998 349.428 2.9998C340.068 2.9998 336.768 11.3398 337.128 16.9798C337.308 20.1598 338.328 22.9198 339.888 25.3798L357.768 7.3798ZM361.668 17.3998C361.488 14.1598 360.528 11.4598 358.968 8.9998L341.088 26.9398C343.728 29.9998 347.028 31.4998 349.428 31.4398C359.148 31.3198 362.028 22.9798 361.668 17.3998ZM393.081 26.3998C392.241 30.9598 385.941 33.7798 380.601 33.5998C377.541 33.5398 375.141 33.2398 369.921 30.2998L369.321 25.7398C370.941 27.2998 375.741 31.3198 380.721 31.5598C384.021 31.6798 387.321 30.4198 387.921 26.8798C388.641 22.9198 386.721 21.0598 380.721 17.9398C375.081 14.9398 369.561 12.5998 370.401 7.1998C370.881 4.1998 374.901 0.479802 381.141 0.419802C383.481 0.359803 386.361 0.659803 390.921 2.8798L391.341 6.4798C386.601 2.1598 382.341 2.2198 380.421 2.6398C375.141 3.7198 372.141 8.3398 382.521 13.4398C389.541 16.9198 394.341 19.4398 393.081 26.3998ZM421.602 4.0198C418.242 2.7598 417.582 2.8198 416.322 2.8198H409.542V28.1398C409.542 30.5998 409.482 31.1998 410.382 33.2398H403.842C404.682 31.0798 404.682 29.7598 404.682 28.1398V2.8198H397.902C396.642 2.8198 395.982 2.7598 392.622 4.0198L393.942 0.959803H420.282L421.602 4.0198ZM442.963 29.9998L441.883 33.2398H423.223C424.123 31.1998 424.063 30.5398 424.063 28.1398V5.9998C424.063 4.4998 424.123 3.1198 423.223 0.959803H441.163L442.483 4.0198C439.123 2.7598 438.463 2.8198 437.203 2.8198H428.982V13.4398H440.443L439.783 15.2398H428.982V31.4398H437.923C439.123 31.4398 439.843 31.1998 442.963 29.9998ZM474.739 33.2998H467.239C463.759 29.8798 459.139 25.3798 453.859 16.7398L454.459 16.3798C460.819 17.8198 463.459 13.2598 463.039 9.7798C462.679 7.1998 461.959 2.3998 452.479 2.8198V28.1398C452.479 29.7598 452.479 31.0198 453.319 33.2398H446.719C447.619 31.0198 447.559 29.7598 447.559 28.1398V5.9998C447.559 4.4398 447.619 3.0598 446.719 0.899803H453.199C457.639 0.899803 467.539 0.479802 468.079 9.7798C468.379 15.3598 463.099 17.8198 459.019 18.1798C463.459 24.1798 465.079 25.9798 474.739 33.2998ZM495.208 11.3998C494.728 17.4598 487.408 20.4598 481.408 18.8998L482.548 17.5198C486.988 18.4798 490.168 15.5398 490.168 10.7998C490.168 4.9198 486.568 2.4598 479.607 2.8198V28.1398C479.607 29.7598 479.607 31.0798 480.448 33.2398H473.848C474.748 31.0798 474.688 29.7598 474.688 28.1398V5.9998C474.688 4.4998 474.748 3.1198 473.848 0.959803H480.328C481.528 0.959803 487.588 0.839804 489.988 2.0398C493.948 4.0198 495.508 7.0198 495.208 11.3998ZM532.224 11.5798C535.944 21.5998 527.724 33.4798 515.484 33.5398C509.004 33.5398 501.624 30.7198 498.684 22.7998C494.964 12.7198 503.064 0.839804 515.424 0.779801C521.904 0.719802 529.344 3.6598 532.224 11.5798ZM527.664 17.3998C527.064 7.9198 519.864 2.9998 515.424 2.9998C506.064 2.9998 502.764 11.3398 503.124 16.9798C503.724 26.3998 511.044 31.4998 515.424 31.4398C525.144 31.2598 528.024 22.9798 527.664 17.3998ZM565.618 33.2998H558.118C554.638 29.8798 550.018 25.3798 544.738 16.7398L545.338 16.3798C551.698 17.8198 554.338 13.2598 553.918 9.7798C553.558 7.1998 552.838 2.3998 543.357 2.8198V28.1398C543.357 29.7598 543.357 31.0198 544.198 33.2398H537.598C538.498 31.0198 538.438 29.7598 538.438 28.1398V5.9998C538.438 4.4398 538.498 3.0598 537.598 0.899803H544.078C548.518 0.899803 558.418 0.479802 558.958 9.7798C559.258 15.3598 553.978 17.8198 549.898 18.1798C554.338 24.1798 555.958 25.9798 565.618 33.2998ZM589.18 4.0198C585.82 2.7598 585.16 2.8198 583.9 2.8198H577.12V28.1398C577.12 30.5998 577.06 31.1998 577.96 33.2398H571.42C572.26 31.0798 572.26 29.7598 572.26 28.1398V2.8198H565.48C564.22 2.8198 563.56 2.7598 560.2 4.0198L561.52 0.959803H587.86L589.18 4.0198Z" fill="black"/>
</svg>
